<svg width="56" height="56" viewBox="0 0 56 56" fill="none" xmlns="http://www.w3.org/2000/svg">
<path d="M49 27.8689C49.0203 30.6513 48.4852 33.4098 47.426 35.9828C46.3667 38.5558 44.8046 40.8916 42.8312 42.8532C34.7594 50.9251 21.5469 51.0126 13.3656 43.0501C10.3641 40.1294 8.30448 36.3779 7.45134 32.2777C6.59819 28.1774 6.99051 23.9158 8.57789 20.0402C10.1653 16.1646 12.8752 12.8522 16.3595 10.5286C19.8438 8.2049 23.9433 6.97612 28.1312 7.0001C28.3933 7.00396 28.6512 7.0659 28.8864 7.18146C29.1216 7.29702 29.3283 7.46331 29.4915 7.66835C29.6547 7.8734 29.7704 8.1121 29.8302 8.36724C29.89 8.62239 29.8925 8.88763 29.8375 9.14385C29.6096 10.1602 29.6113 11.2145 29.8426 12.2301C30.0738 13.2456 30.5288 14.1968 31.1744 15.0141C31.8199 15.8315 32.6397 16.4946 33.574 16.9549C34.5083 17.4152 35.5335 17.6613 36.575 17.6751C37.0391 17.6751 37.4842 17.8595 37.8124 18.1877C38.1406 18.5159 38.325 18.961 38.325 19.4251C38.3388 20.4666 38.5848 21.4918 39.0452 22.4261C39.5055 23.3604 40.1686 24.1802 40.986 24.8257C41.8033 25.4713 42.7545 25.9262 43.77 26.1575C44.7856 26.3888 45.8399 26.3905 46.8562 26.1626C47.1125 26.1076 47.3777 26.1101 47.6329 26.1699C47.888 26.2297 48.1267 26.3454 48.3317 26.5086C48.5368 26.6718 48.7031 26.8785 48.8186 27.1137C48.9342 27.3489 48.9961 27.6068 49 27.8689V27.8689Z" stroke="white" stroke-width="2" stroke-linecap="round" stroke-linejoin="round"/>
<path d="M34.125 40.25C35.5747 40.25 36.75 39.0747 36.75 37.625C36.75 36.1753 35.5747 35 34.125 35C32.6753 35 31.5 36.1753 31.5 37.625C31.5 39.0747 32.6753 40.25 34.125 40.25Z" fill="white"/>
<path d="M20.125 38.5C21.5747 38.5 22.75 37.3247 22.75 35.875C22.75 34.4253 21.5747 33.25 20.125 33.25C18.6753 33.25 17.5 34.4253 17.5 35.875C17.5 37.3247 18.6753 38.5 20.125 38.5Z" fill="white"/>
<path d="M18.375 26.25C19.8247 26.25 21 25.0747 21 23.625C21 22.1753 19.8247 21 18.375 21C16.9253 21 15.75 22.1753 15.75 23.625C15.75 25.0747 16.9253 26.25 18.375 26.25Z" fill="white"/>
<path d="M29.75 29.75C31.1997 29.75 32.375 28.5747 32.375 27.125C32.375 25.6753 31.1997 24.5 29.75 24.5C28.3003 24.5 27.125 25.6753 27.125 27.125C27.125 28.5747 28.3003 29.75 29.75 29.75Z" fill="white"/>
</svg>
