<svg width="120" height="120" viewBox="0 0 120 120" fill="none" xmlns="http://www.w3.org/2000/svg">
<path d="M119.303 0.676178C118.663 0.0443041 117.716 -0.166633 116.869 0.136648L19.5206 34.8468C16.1386 32.7787 11.8488 32.2945 7.91437 33.9236C1.38351 36.629 -1.72923 44.1433 0.975926 50.6746C7.35539 66.0749 16.5661 79.8601 28.3531 91.647C40.14 103.434 53.9251 112.645 69.3256 119.024C70.925 119.686 72.5827 120 74.2149 120C79.2481 120 84.0339 117.017 86.0764 112.085C87.4508 108.767 87.321 105.196 86.0064 102.129L119.874 3.10266C120.165 2.25141 119.943 1.30829 119.303 0.676178ZM34.2605 34.5677L44.5777 30.8894C45.789 32.1799 46.3794 33.9564 46.1429 35.7531C45.9343 37.3352 45.1224 38.7416 43.8565 39.7131C42.5907 40.6846 41.0232 41.1044 39.44 40.8965C37.8582 40.6881 36.4519 39.8765 35.4804 38.6104C34.5854 37.4439 34.1595 36.0208 34.2605 34.5677ZM81.7457 110.291C80.0296 114.435 75.2619 116.409 71.1195 114.693C41.1101 102.263 17.7375 78.8898 5.30695 48.8805C4.47562 46.8735 4.47562 44.6631 5.30695 42.6559C6.13828 40.649 7.70133 39.0859 9.70828 38.2546C11.7152 37.4233 13.9259 37.4233 15.9328 38.2546C17.9398 39.0859 19.5028 40.649 20.3342 42.6559C25.6547 55.5013 33.3375 66.9992 43.1691 76.8308C53.0007 86.6623 64.4987 94.3449 77.3441 99.6657C81.4874 101.382 83.462 106.148 81.7457 110.291ZM102.568 39.2177C102.356 39.2125 102.144 39.2003 101.932 39.1727C100.35 38.9643 98.9439 38.1524 97.9726 36.8866C97.0011 35.6207 96.5809 34.052 96.789 32.4703C97.2191 29.2045 100.225 26.8978 103.492 27.3271C104.5 27.4598 105.446 27.8507 106.253 28.4453L102.568 39.2177ZM107.811 23.8882C106.669 23.2664 105.414 22.8522 104.104 22.6797C98.2745 21.9103 92.909 26.0299 92.1416 31.8585C91.7699 34.6818 92.5199 37.4809 94.2536 39.7403C95.9235 41.9165 98.3141 43.3382 101.011 43.7718L96.3524 57.3934L90.995 53.2825C89.9682 52.495 88.4966 52.6881 87.7089 53.7151C86.9209 54.7422 87.1147 56.2133 88.1415 57.0013L94.7521 62.0736L82.6363 97.5005C81.62 96.6169 80.4498 95.8777 79.1389 95.3347C54.2998 85.0458 34.9545 65.7006 24.6661 40.862C24.3085 39.9981 23.8641 39.1961 23.3515 38.4574L29.6278 36.2195C29.847 38.1105 30.5728 39.9142 31.7618 41.4637C33.4953 43.723 36.0052 45.1719 38.8285 45.5434C39.3015 45.6058 39.773 45.6367 40.2422 45.6367C42.5738 45.6367 44.8294 44.875 46.7103 43.4319C48.9699 41.698 50.4186 39.1886 50.7905 36.3649C51.124 33.8301 50.5325 31.3195 49.2043 29.2396L78.3388 18.8517L79.4429 21.5175C79.817 22.42 80.6896 22.965 81.6092 22.965C81.9081 22.965 82.2118 22.9073 82.5053 22.7859C83.701 22.2907 84.2689 20.9193 83.7737 19.7236L82.7598 17.2755L113.866 6.18445L107.811 23.8882Z" fill="#FF9F0D"/>
</svg>
