<svg width="25" height="25" viewBox="0 0 25 25" fill="none" xmlns="http://www.w3.org/2000/svg">
<path d="M23.9168 9.4385L16.5401 8.31207L13.2347 1.26147C13.1628 1.14079 13.0629 1.0413 12.9444 0.972332C12.8259 0.903367 12.6926 0.867188 12.5572 0.867188C12.4217 0.867188 12.2885 0.903367 12.17 0.972332C12.0515 1.0413 11.9516 1.14079 11.8796 1.26147L8.57432 8.3217L1.20067 9.4385C1.0671 9.45228 0.940034 9.50587 0.834424 9.59298C0.728813 9.68008 0.649044 9.79707 0.60449 9.9302C0.559936 10.0633 0.552449 10.2071 0.58291 10.3445C0.613371 10.482 0.680513 10.6074 0.776446 10.7061L6.13272 16.2099L4.86613 23.9826C4.84992 24.1259 4.87168 24.2711 4.929 24.4022C4.98632 24.5333 5.07697 24.6452 5.19095 24.7255C5.30493 24.8058 5.43781 24.8515 5.57491 24.8575C5.71202 24.8634 5.84802 24.8294 5.96791 24.7592L12.5572 21.1136L19.1434 24.7624C19.2633 24.8326 19.3993 24.8666 19.5364 24.8607C19.6735 24.8547 19.8064 24.809 19.9204 24.7287C20.0344 24.6484 20.125 24.5365 20.1823 24.4054C20.2396 24.2743 20.2614 24.1291 20.2452 23.9858L18.9817 16.2099L24.3379 10.7061C24.4339 10.6074 24.501 10.482 24.5315 10.3445C24.5619 10.2071 24.5544 10.0633 24.5099 9.9302C24.4653 9.79707 24.3856 9.68008 24.28 9.59298C24.1743 9.50587 24.0473 9.45228 23.9137 9.4385H23.9168Z" fill="#E0E0E0"/>
</svg>
