<svg width="25" height="25" viewBox="0 0 25 25" fill="none" xmlns="http://www.w3.org/2000/svg">
<path d="M23.9949 9.4385L16.6182 8.31207L13.3129 1.26147C13.241 1.14079 13.1411 1.0413 13.0226 0.972332C12.9041 0.903367 12.7708 0.867188 12.6354 0.867188C12.4999 0.867188 12.3667 0.903367 12.2482 0.972332C12.1297 1.0413 12.0298 1.14079 11.9578 1.26147L8.65251 8.3217L1.27886 9.4385C1.14528 9.45228 1.01822 9.50587 0.91261 9.59298C0.807 9.68008 0.72723 9.79707 0.682676 9.9302C0.638122 10.0633 0.630635 10.2071 0.661096 10.3445C0.691557 10.482 0.7587 10.6074 0.854632 10.7061L6.2109 16.2099L4.94432 23.9826C4.92811 24.1259 4.94987 24.2711 5.00718 24.4022C5.0645 24.5333 5.15516 24.6452 5.26914 24.7255C5.38312 24.8058 5.51599 24.8515 5.6531 24.8575C5.7902 24.8634 5.92621 24.8294 6.04609 24.7592L12.6354 21.1136L19.2216 24.7624C19.3415 24.8326 19.4775 24.8666 19.6146 24.8607C19.7517 24.8547 19.8846 24.809 19.9986 24.7287C20.1125 24.6484 20.2032 24.5365 20.2605 24.4054C20.3178 24.2743 20.3396 24.1291 20.3234 23.9858L19.0598 16.2099L24.4161 10.7061C24.5121 10.6074 24.5792 10.482 24.6097 10.3445C24.6401 10.2071 24.6326 10.0633 24.5881 9.9302C24.5435 9.79707 24.4638 9.68008 24.3581 9.59298C24.2525 9.50587 24.1255 9.45228 23.9919 9.4385H23.9949Z" fill="#FF9F0D"/>
</svg>
